<mxfile host="app.diagrams.net" agent="Mozilla/5.0 (Macintosh; Intel Mac OS X 10_15_7) AppleWebKit/605.1.15 (KHTML, like Gecko) Version/17.6 Safari/605.1.15" version="24.7.12">
  <diagram name="Sida-1" id="6eg3Wwl7sb8oLHCEkT9h">
    <mxGraphModel dx="2868" dy="1466" grid="1" gridSize="10" guides="1" tooltips="1" connect="1" arrows="1" fold="1" page="1" pageScale="1" pageWidth="3300" pageHeight="2339" math="0" shadow="0">
      <root>
        <mxCell id="0" />
        <mxCell id="1" parent="0" />
        <mxCell id="uvv6Vc5LGoxbDmVbcmZp-1" value="Entinty" style="rounded=0;whiteSpace=wrap;html=1;" parent="1" vertex="1">
          <mxGeometry x="865" y="270" width="120" height="60" as="geometry" />
        </mxCell>
        <mxCell id="uvv6Vc5LGoxbDmVbcmZp-2" value="Attribute" style="ellipse;whiteSpace=wrap;html=1;" parent="1" vertex="1">
          <mxGeometry x="1155" y="260" width="120" height="80" as="geometry" />
        </mxCell>
        <mxCell id="uvv6Vc5LGoxbDmVbcmZp-3" value="Action" style="rhombus;whiteSpace=wrap;html=1;" parent="1" vertex="1">
          <mxGeometry x="995" y="260" width="140" height="80" as="geometry" />
        </mxCell>
        <mxCell id="uvv6Vc5LGoxbDmVbcmZp-4" value="Butik" style="rounded=0;whiteSpace=wrap;html=1;" parent="1" vertex="1">
          <mxGeometry x="1430" y="850" width="120" height="60" as="geometry" />
        </mxCell>
        <mxCell id="uvv6Vc5LGoxbDmVbcmZp-5" value="Anst채lld" style="rounded=0;whiteSpace=wrap;html=1;" parent="1" vertex="1">
          <mxGeometry x="1840" y="900" width="120" height="60" as="geometry" />
        </mxCell>
        <mxCell id="uvv6Vc5LGoxbDmVbcmZp-6" value="Medlem" style="rounded=0;whiteSpace=wrap;html=1;" parent="1" vertex="1">
          <mxGeometry x="990" y="860" width="120" height="60" as="geometry" />
        </mxCell>
        <mxCell id="uvv6Vc5LGoxbDmVbcmZp-8" value="채r_medlem" style="rhombus;whiteSpace=wrap;html=1;" parent="1" vertex="1">
          <mxGeometry x="1190" y="855" width="90" height="70" as="geometry" />
        </mxCell>
        <mxCell id="uvv6Vc5LGoxbDmVbcmZp-9" value="" style="endArrow=none;html=1;rounded=0;entryX=0;entryY=0.5;entryDx=0;entryDy=0;exitX=1;exitY=0.5;exitDx=0;exitDy=0;" parent="1" source="uvv6Vc5LGoxbDmVbcmZp-6" target="uvv6Vc5LGoxbDmVbcmZp-8" edge="1">
          <mxGeometry width="50" height="50" relative="1" as="geometry">
            <mxPoint x="1120" y="980" as="sourcePoint" />
            <mxPoint x="1170" y="930" as="targetPoint" />
          </mxGeometry>
        </mxCell>
        <mxCell id="uvv6Vc5LGoxbDmVbcmZp-10" value="" style="endArrow=none;html=1;rounded=0;entryX=-0.025;entryY=0.633;entryDx=0;entryDy=0;exitX=1;exitY=0.5;exitDx=0;exitDy=0;entryPerimeter=0;" parent="1" source="uvv6Vc5LGoxbDmVbcmZp-8" target="uvv6Vc5LGoxbDmVbcmZp-4" edge="1">
          <mxGeometry width="50" height="50" relative="1" as="geometry">
            <mxPoint x="1140" y="1120" as="sourcePoint" />
            <mxPoint x="1200" y="1040" as="targetPoint" />
            <Array as="points" />
          </mxGeometry>
        </mxCell>
        <mxCell id="uvv6Vc5LGoxbDmVbcmZp-11" value="Telefonnummer" style="ellipse;whiteSpace=wrap;html=1;" parent="1" vertex="1">
          <mxGeometry x="1220" y="980" width="120" height="80" as="geometry" />
        </mxCell>
        <mxCell id="uvv6Vc5LGoxbDmVbcmZp-12" value="Namn" style="ellipse;whiteSpace=wrap;html=1;" parent="1" vertex="1">
          <mxGeometry x="1660" y="710" width="90" height="40" as="geometry" />
        </mxCell>
        <mxCell id="uvv6Vc5LGoxbDmVbcmZp-13" value="Adress" style="ellipse;whiteSpace=wrap;html=1;" parent="1" vertex="1">
          <mxGeometry x="1440" y="540" width="120" height="80" as="geometry" />
        </mxCell>
        <mxCell id="uvv6Vc5LGoxbDmVbcmZp-14" value="Gatuadress" style="ellipse;whiteSpace=wrap;html=1;" parent="1" vertex="1">
          <mxGeometry x="1280" y="510" width="90" height="60" as="geometry" />
        </mxCell>
        <mxCell id="uvv6Vc5LGoxbDmVbcmZp-16" value="Postnummer&amp;nbsp;" style="ellipse;whiteSpace=wrap;html=1;" parent="1" vertex="1">
          <mxGeometry x="1380" y="430" width="90" height="60" as="geometry" />
        </mxCell>
        <mxCell id="uvv6Vc5LGoxbDmVbcmZp-17" value="Husnummer" style="ellipse;whiteSpace=wrap;html=1;" parent="1" vertex="1">
          <mxGeometry x="1500" y="420" width="80" height="60" as="geometry" />
        </mxCell>
        <mxCell id="uvv6Vc5LGoxbDmVbcmZp-18" value="Stad" style="ellipse;whiteSpace=wrap;html=1;" parent="1" vertex="1">
          <mxGeometry x="1620" y="450" width="90" height="60" as="geometry" />
        </mxCell>
        <mxCell id="uvv6Vc5LGoxbDmVbcmZp-22" value="" style="endArrow=none;html=1;rounded=0;entryX=0.944;entryY=0.279;entryDx=0;entryDy=0;entryPerimeter=0;" parent="1" source="uvv6Vc5LGoxbDmVbcmZp-18" target="uvv6Vc5LGoxbDmVbcmZp-13" edge="1">
          <mxGeometry width="50" height="50" relative="1" as="geometry">
            <mxPoint x="1540" y="690" as="sourcePoint" />
            <mxPoint x="1590" y="640" as="targetPoint" />
            <Array as="points" />
          </mxGeometry>
        </mxCell>
        <mxCell id="uvv6Vc5LGoxbDmVbcmZp-24" value="" style="endArrow=none;html=1;rounded=0;exitX=0.396;exitY=1.011;exitDx=0;exitDy=0;exitPerimeter=0;entryX=0.5;entryY=0;entryDx=0;entryDy=0;" parent="1" source="uvv6Vc5LGoxbDmVbcmZp-17" target="uvv6Vc5LGoxbDmVbcmZp-13" edge="1">
          <mxGeometry width="50" height="50" relative="1" as="geometry">
            <mxPoint x="1550" y="680" as="sourcePoint" />
            <mxPoint x="1516" y="670" as="targetPoint" />
            <Array as="points" />
          </mxGeometry>
        </mxCell>
        <mxCell id="uvv6Vc5LGoxbDmVbcmZp-25" value="" style="endArrow=none;html=1;rounded=0;exitX=0.5;exitY=1;exitDx=0;exitDy=0;" parent="1" source="uvv6Vc5LGoxbDmVbcmZp-16" target="uvv6Vc5LGoxbDmVbcmZp-13" edge="1">
          <mxGeometry width="50" height="50" relative="1" as="geometry">
            <mxPoint x="1633" y="689" as="sourcePoint" />
            <mxPoint x="1562" y="628" as="targetPoint" />
            <Array as="points" />
          </mxGeometry>
        </mxCell>
        <mxCell id="uvv6Vc5LGoxbDmVbcmZp-26" value="" style="endArrow=none;html=1;rounded=0;entryX=-0.021;entryY=0.404;entryDx=0;entryDy=0;entryPerimeter=0;exitX=0.787;exitY=0.942;exitDx=0;exitDy=0;exitPerimeter=0;" parent="1" source="uvv6Vc5LGoxbDmVbcmZp-14" target="uvv6Vc5LGoxbDmVbcmZp-13" edge="1">
          <mxGeometry width="50" height="50" relative="1" as="geometry">
            <mxPoint x="1540" y="690" as="sourcePoint" />
            <mxPoint x="1590" y="640" as="targetPoint" />
            <Array as="points" />
          </mxGeometry>
        </mxCell>
        <mxCell id="uvv6Vc5LGoxbDmVbcmZp-27" value="" style="endArrow=none;html=1;rounded=0;entryX=0.5;entryY=0;entryDx=0;entryDy=0;exitX=0.5;exitY=1;exitDx=0;exitDy=0;" parent="1" source="uvv6Vc5LGoxbDmVbcmZp-13" target="uvv6Vc5LGoxbDmVbcmZp-4" edge="1">
          <mxGeometry width="50" height="50" relative="1" as="geometry">
            <mxPoint x="1455" y="1180" as="sourcePoint" />
            <mxPoint x="1505" y="1130" as="targetPoint" />
          </mxGeometry>
        </mxCell>
        <mxCell id="uvv6Vc5LGoxbDmVbcmZp-28" value="" style="endArrow=none;html=1;rounded=0;entryX=0.15;entryY=0.983;entryDx=0;entryDy=0;entryPerimeter=0;" parent="1" source="uvv6Vc5LGoxbDmVbcmZp-11" target="uvv6Vc5LGoxbDmVbcmZp-4" edge="1">
          <mxGeometry width="50" height="50" relative="1" as="geometry">
            <mxPoint x="1520" y="1350" as="sourcePoint" />
            <mxPoint x="1570" y="1300" as="targetPoint" />
            <Array as="points" />
          </mxGeometry>
        </mxCell>
        <mxCell id="uvv6Vc5LGoxbDmVbcmZp-29" value="" style="endArrow=none;html=1;rounded=0;entryX=1;entryY=0.25;entryDx=0;entryDy=0;exitX=0;exitY=0.5;exitDx=0;exitDy=0;" parent="1" source="uvv6Vc5LGoxbDmVbcmZp-12" target="uvv6Vc5LGoxbDmVbcmZp-4" edge="1">
          <mxGeometry width="50" height="50" relative="1" as="geometry">
            <mxPoint x="1520" y="1350" as="sourcePoint" />
            <mxPoint x="1570" y="1300" as="targetPoint" />
            <Array as="points" />
          </mxGeometry>
        </mxCell>
        <mxCell id="uvv6Vc5LGoxbDmVbcmZp-30" value="" style="endArrow=none;html=1;rounded=0;exitX=1;exitY=0.5;exitDx=0;exitDy=0;entryX=0;entryY=0.5;entryDx=0;entryDy=0;" parent="1" source="uvv6Vc5LGoxbDmVbcmZp-4" target="uvv6Vc5LGoxbDmVbcmZp-31" edge="1">
          <mxGeometry width="50" height="50" relative="1" as="geometry">
            <mxPoint x="1520" y="1080" as="sourcePoint" />
            <mxPoint x="1690" y="1020" as="targetPoint" />
          </mxGeometry>
        </mxCell>
        <mxCell id="uvv6Vc5LGoxbDmVbcmZp-31" value="채r_anst채lld" style="rhombus;whiteSpace=wrap;html=1;" parent="1" vertex="1">
          <mxGeometry x="1670" y="890" width="90" height="70" as="geometry" />
        </mxCell>
        <mxCell id="uvv6Vc5LGoxbDmVbcmZp-32" value="" style="endArrow=none;html=1;rounded=0;entryX=0;entryY=0.5;entryDx=0;entryDy=0;exitX=1;exitY=0.5;exitDx=0;exitDy=0;" parent="1" source="uvv6Vc5LGoxbDmVbcmZp-31" target="uvv6Vc5LGoxbDmVbcmZp-5" edge="1">
          <mxGeometry width="50" height="50" relative="1" as="geometry">
            <mxPoint x="1780" y="1040" as="sourcePoint" />
            <mxPoint x="1830" y="990" as="targetPoint" />
            <Array as="points" />
          </mxGeometry>
        </mxCell>
        <mxCell id="uvv6Vc5LGoxbDmVbcmZp-33" value="Filmer" style="rounded=0;whiteSpace=wrap;html=1;" parent="1" vertex="1">
          <mxGeometry x="1430" y="1200" width="120" height="60" as="geometry" />
        </mxCell>
        <mxCell id="uvv6Vc5LGoxbDmVbcmZp-35" value="erbjuder" style="rhombus;whiteSpace=wrap;html=1;" parent="1" vertex="1">
          <mxGeometry x="1445" y="1020" width="90" height="70" as="geometry" />
        </mxCell>
        <mxCell id="uvv6Vc5LGoxbDmVbcmZp-39" value="Roll" style="ellipse;whiteSpace=wrap;html=1;" parent="1" vertex="1">
          <mxGeometry x="1900" y="1000" width="70" height="20" as="geometry" />
        </mxCell>
        <mxCell id="uvv6Vc5LGoxbDmVbcmZp-40" value="L철n" style="ellipse;whiteSpace=wrap;html=1;" parent="1" vertex="1">
          <mxGeometry x="1810" y="1000" width="60" height="20" as="geometry" />
        </mxCell>
        <mxCell id="uvv6Vc5LGoxbDmVbcmZp-41" value="&lt;b&gt;&lt;u&gt;Anst채llningsnummer&lt;/u&gt;&lt;/b&gt;" style="ellipse;whiteSpace=wrap;html=1;" parent="1" vertex="1">
          <mxGeometry x="2000" y="965" width="140" height="45" as="geometry" />
        </mxCell>
        <mxCell id="uvv6Vc5LGoxbDmVbcmZp-42" value="NamnID" style="ellipse;whiteSpace=wrap;html=1;" parent="1" vertex="1">
          <mxGeometry x="1990" y="850" width="70" height="30" as="geometry" />
        </mxCell>
        <mxCell id="uvv6Vc5LGoxbDmVbcmZp-43" value="Efternamn" style="ellipse;whiteSpace=wrap;html=1;" parent="1" vertex="1">
          <mxGeometry x="2120" y="860" width="70" height="30" as="geometry" />
        </mxCell>
        <mxCell id="uvv6Vc5LGoxbDmVbcmZp-44" value="F철rnamn" style="ellipse;whiteSpace=wrap;html=1;" parent="1" vertex="1">
          <mxGeometry x="2090" y="790" width="70" height="30" as="geometry" />
        </mxCell>
        <mxCell id="uvv6Vc5LGoxbDmVbcmZp-47" value="" style="endArrow=none;html=1;rounded=0;entryX=0.405;entryY=1.106;entryDx=0;entryDy=0;entryPerimeter=0;exitX=0.964;exitY=0.217;exitDx=0;exitDy=0;exitPerimeter=0;" parent="1" source="uvv6Vc5LGoxbDmVbcmZp-42" target="uvv6Vc5LGoxbDmVbcmZp-44" edge="1">
          <mxGeometry width="50" height="50" relative="1" as="geometry">
            <mxPoint x="2140" y="930" as="sourcePoint" />
            <mxPoint x="2190" y="880" as="targetPoint" />
            <Array as="points" />
          </mxGeometry>
        </mxCell>
        <mxCell id="uvv6Vc5LGoxbDmVbcmZp-48" value="" style="endArrow=none;html=1;rounded=0;entryX=0;entryY=0.5;entryDx=0;entryDy=0;exitX=1;exitY=0.5;exitDx=0;exitDy=0;" parent="1" source="uvv6Vc5LGoxbDmVbcmZp-42" target="uvv6Vc5LGoxbDmVbcmZp-43" edge="1">
          <mxGeometry width="50" height="50" relative="1" as="geometry">
            <mxPoint x="2180" y="860" as="sourcePoint" />
            <mxPoint x="2241" y="826" as="targetPoint" />
            <Array as="points">
              <mxPoint x="2100" y="870" />
            </Array>
          </mxGeometry>
        </mxCell>
        <mxCell id="uvv6Vc5LGoxbDmVbcmZp-49" value="" style="endArrow=none;html=1;rounded=0;entryX=0.5;entryY=1;entryDx=0;entryDy=0;exitX=1;exitY=0;exitDx=0;exitDy=0;" parent="1" source="uvv6Vc5LGoxbDmVbcmZp-5" target="uvv6Vc5LGoxbDmVbcmZp-42" edge="1">
          <mxGeometry width="50" height="50" relative="1" as="geometry">
            <mxPoint x="1960" y="924" as="sourcePoint" />
            <mxPoint x="2021" y="890" as="targetPoint" />
            <Array as="points" />
          </mxGeometry>
        </mxCell>
        <mxCell id="uvv6Vc5LGoxbDmVbcmZp-50" value="" style="endArrow=none;html=1;rounded=0;entryX=0;entryY=0.5;entryDx=0;entryDy=0;exitX=1;exitY=1;exitDx=0;exitDy=0;" parent="1" source="uvv6Vc5LGoxbDmVbcmZp-5" target="uvv6Vc5LGoxbDmVbcmZp-41" edge="1">
          <mxGeometry width="50" height="50" relative="1" as="geometry">
            <mxPoint x="2010" y="950" as="sourcePoint" />
            <mxPoint x="2071" y="916" as="targetPoint" />
            <Array as="points" />
          </mxGeometry>
        </mxCell>
        <mxCell id="uvv6Vc5LGoxbDmVbcmZp-51" value="" style="endArrow=none;html=1;rounded=0;entryX=0.5;entryY=0;entryDx=0;entryDy=0;exitX=0.75;exitY=1;exitDx=0;exitDy=0;" parent="1" source="uvv6Vc5LGoxbDmVbcmZp-5" target="uvv6Vc5LGoxbDmVbcmZp-39" edge="1">
          <mxGeometry width="50" height="50" relative="1" as="geometry">
            <mxPoint x="1930" y="970" as="sourcePoint" />
            <mxPoint x="1991" y="936" as="targetPoint" />
            <Array as="points" />
          </mxGeometry>
        </mxCell>
        <mxCell id="uvv6Vc5LGoxbDmVbcmZp-52" value="" style="endArrow=none;html=1;rounded=0;entryX=0.34;entryY=1.067;entryDx=0;entryDy=0;entryPerimeter=0;exitX=0.597;exitY=-0.175;exitDx=0;exitDy=0;exitPerimeter=0;" parent="1" source="uvv6Vc5LGoxbDmVbcmZp-40" target="uvv6Vc5LGoxbDmVbcmZp-5" edge="1">
          <mxGeometry width="50" height="50" relative="1" as="geometry">
            <mxPoint x="1900" y="980" as="sourcePoint" />
            <mxPoint x="1961" y="946" as="targetPoint" />
            <Array as="points" />
          </mxGeometry>
        </mxCell>
        <mxCell id="uvv6Vc5LGoxbDmVbcmZp-53" style="edgeStyle=orthogonalEdgeStyle;rounded=0;orthogonalLoop=1;jettySize=auto;html=1;exitX=0.5;exitY=1;exitDx=0;exitDy=0;" parent="1" source="uvv6Vc5LGoxbDmVbcmZp-4" target="uvv6Vc5LGoxbDmVbcmZp-4" edge="1">
          <mxGeometry relative="1" as="geometry" />
        </mxCell>
        <mxCell id="uvv6Vc5LGoxbDmVbcmZp-54" value="&lt;u&gt;Butiksnummer&lt;/u&gt;" style="ellipse;whiteSpace=wrap;html=1;" parent="1" vertex="1">
          <mxGeometry x="1260" y="760" width="120" height="40" as="geometry" />
        </mxCell>
        <mxCell id="uvv6Vc5LGoxbDmVbcmZp-55" value="" style="endArrow=none;html=1;rounded=0;exitX=0;exitY=0;exitDx=0;exitDy=0;entryX=0.5;entryY=1;entryDx=0;entryDy=0;" parent="1" source="uvv6Vc5LGoxbDmVbcmZp-4" target="uvv6Vc5LGoxbDmVbcmZp-54" edge="1">
          <mxGeometry width="50" height="50" relative="1" as="geometry">
            <mxPoint x="1310" y="850" as="sourcePoint" />
            <mxPoint x="1360" y="800" as="targetPoint" />
          </mxGeometry>
        </mxCell>
        <mxCell id="uvv6Vc5LGoxbDmVbcmZp-56" value="Namn" style="ellipse;whiteSpace=wrap;html=1;" parent="1" vertex="1">
          <mxGeometry x="1040" y="740" width="90" height="50" as="geometry" />
        </mxCell>
        <mxCell id="uvv6Vc5LGoxbDmVbcmZp-57" value="&lt;u&gt;Medlemsnummer&lt;/u&gt;" style="ellipse;whiteSpace=wrap;html=1;" parent="1" vertex="1">
          <mxGeometry x="835" y="830" width="110" height="50" as="geometry" />
        </mxCell>
        <mxCell id="uvv6Vc5LGoxbDmVbcmZp-58" value="Adress" style="ellipse;whiteSpace=wrap;html=1;" parent="1" vertex="1">
          <mxGeometry x="910" y="750" width="90" height="50" as="geometry" />
        </mxCell>
        <mxCell id="uvv6Vc5LGoxbDmVbcmZp-59" value="&lt;u&gt;Butiksnummer&lt;/u&gt;" style="ellipse;whiteSpace=wrap;html=1;" parent="1" vertex="1">
          <mxGeometry x="910" y="985" width="110" height="50" as="geometry" />
        </mxCell>
        <mxCell id="uvv6Vc5LGoxbDmVbcmZp-60" value="Startdatum f철r medlemskap&amp;nbsp;" style="ellipse;whiteSpace=wrap;html=1;" parent="1" vertex="1">
          <mxGeometry x="840" y="915" width="100" height="50" as="geometry" />
        </mxCell>
        <mxCell id="uvv6Vc5LGoxbDmVbcmZp-63" value="" style="endArrow=none;html=1;rounded=0;entryX=0.448;entryY=1.049;entryDx=0;entryDy=0;entryPerimeter=0;" parent="1" target="uvv6Vc5LGoxbDmVbcmZp-56" edge="1">
          <mxGeometry width="50" height="50" relative="1" as="geometry">
            <mxPoint x="1070" y="860" as="sourcePoint" />
            <mxPoint x="1120" y="810" as="targetPoint" />
          </mxGeometry>
        </mxCell>
        <mxCell id="uvv6Vc5LGoxbDmVbcmZp-64" value="" style="endArrow=none;html=1;rounded=0;entryX=0.5;entryY=1;entryDx=0;entryDy=0;exitX=0.396;exitY=0.009;exitDx=0;exitDy=0;exitPerimeter=0;" parent="1" source="uvv6Vc5LGoxbDmVbcmZp-6" target="uvv6Vc5LGoxbDmVbcmZp-58" edge="1">
          <mxGeometry width="50" height="50" relative="1" as="geometry">
            <mxPoint x="1000" y="840" as="sourcePoint" />
            <mxPoint x="1010" y="772" as="targetPoint" />
          </mxGeometry>
        </mxCell>
        <mxCell id="uvv6Vc5LGoxbDmVbcmZp-65" value="" style="endArrow=none;html=1;rounded=0;entryX=1;entryY=0.5;entryDx=0;entryDy=0;exitX=-0.017;exitY=0.398;exitDx=0;exitDy=0;exitPerimeter=0;" parent="1" source="uvv6Vc5LGoxbDmVbcmZp-6" target="uvv6Vc5LGoxbDmVbcmZp-57" edge="1">
          <mxGeometry width="50" height="50" relative="1" as="geometry">
            <mxPoint x="950" y="928" as="sourcePoint" />
            <mxPoint x="960" y="860" as="targetPoint" />
          </mxGeometry>
        </mxCell>
        <mxCell id="uvv6Vc5LGoxbDmVbcmZp-66" value="" style="endArrow=none;html=1;rounded=0;entryX=-0.005;entryY=0.604;entryDx=0;entryDy=0;entryPerimeter=0;exitX=0.965;exitY=0.33;exitDx=0;exitDy=0;exitPerimeter=0;" parent="1" source="uvv6Vc5LGoxbDmVbcmZp-60" target="uvv6Vc5LGoxbDmVbcmZp-6" edge="1">
          <mxGeometry width="50" height="50" relative="1" as="geometry">
            <mxPoint x="940" y="930" as="sourcePoint" />
            <mxPoint x="980" y="832" as="targetPoint" />
          </mxGeometry>
        </mxCell>
        <mxCell id="uvv6Vc5LGoxbDmVbcmZp-67" value="" style="endArrow=none;html=1;rounded=0;entryX=0.404;entryY=1.04;entryDx=0;entryDy=0;entryPerimeter=0;exitX=0.557;exitY=0.006;exitDx=0;exitDy=0;exitPerimeter=0;" parent="1" source="uvv6Vc5LGoxbDmVbcmZp-59" target="uvv6Vc5LGoxbDmVbcmZp-6" edge="1">
          <mxGeometry width="50" height="50" relative="1" as="geometry">
            <mxPoint x="1020.0000000000001" y="1035" as="sourcePoint" />
            <mxPoint x="1036.86" y="941.7" as="targetPoint" />
            <Array as="points" />
          </mxGeometry>
        </mxCell>
        <mxCell id="uvv6Vc5LGoxbDmVbcmZp-68" value="Titel" style="ellipse;whiteSpace=wrap;html=1;" parent="1" vertex="1">
          <mxGeometry x="1310" y="1320" width="90" height="60" as="geometry" />
        </mxCell>
        <mxCell id="uvv6Vc5LGoxbDmVbcmZp-70" value="" style="endArrow=none;html=1;rounded=0;exitX=0.5;exitY=0;exitDx=0;exitDy=0;entryX=0.502;entryY=0.951;entryDx=0;entryDy=0;entryPerimeter=0;" parent="1" source="uvv6Vc5LGoxbDmVbcmZp-33" target="uvv6Vc5LGoxbDmVbcmZp-35" edge="1">
          <mxGeometry width="50" height="50" relative="1" as="geometry">
            <mxPoint x="1490" y="1180" as="sourcePoint" />
            <mxPoint x="1490" y="1110" as="targetPoint" />
          </mxGeometry>
        </mxCell>
        <mxCell id="uvv6Vc5LGoxbDmVbcmZp-71" value="" style="endArrow=none;html=1;rounded=0;entryX=0.5;entryY=1;entryDx=0;entryDy=0;exitX=0.5;exitY=0;exitDx=0;exitDy=0;" parent="1" source="uvv6Vc5LGoxbDmVbcmZp-35" target="uvv6Vc5LGoxbDmVbcmZp-4" edge="1">
          <mxGeometry width="50" height="50" relative="1" as="geometry">
            <mxPoint x="1485" y="1010" as="sourcePoint" />
            <mxPoint x="1495" y="942" as="targetPoint" />
          </mxGeometry>
        </mxCell>
        <mxCell id="uvv6Vc5LGoxbDmVbcmZp-72" value="" style="endArrow=none;html=1;rounded=0;exitX=0.5;exitY=0;exitDx=0;exitDy=0;" parent="1" source="uvv6Vc5LGoxbDmVbcmZp-68" edge="1">
          <mxGeometry width="50" height="50" relative="1" as="geometry">
            <mxPoint x="1480" y="1348" as="sourcePoint" />
            <mxPoint x="1450" y="1260" as="targetPoint" />
          </mxGeometry>
        </mxCell>
        <mxCell id="uvv6Vc5LGoxbDmVbcmZp-73" value="L채ngd" style="ellipse;whiteSpace=wrap;html=1;" parent="1" vertex="1">
          <mxGeometry x="1580" y="1320" width="90" height="60" as="geometry" />
        </mxCell>
        <mxCell id="uvv6Vc5LGoxbDmVbcmZp-74" value="&lt;u&gt;Filmnummer&lt;/u&gt;" style="ellipse;whiteSpace=wrap;html=1;" parent="1" vertex="1">
          <mxGeometry x="1445" y="1330" width="90" height="60" as="geometry" />
        </mxCell>
        <mxCell id="uvv6Vc5LGoxbDmVbcmZp-75" value="" style="endArrow=none;html=1;rounded=0;entryX=0.449;entryY=1.002;entryDx=0;entryDy=0;entryPerimeter=0;exitX=0.456;exitY=0.031;exitDx=0;exitDy=0;exitPerimeter=0;" parent="1" source="uvv6Vc5LGoxbDmVbcmZp-74" target="uvv6Vc5LGoxbDmVbcmZp-33" edge="1">
          <mxGeometry width="50" height="50" relative="1" as="geometry">
            <mxPoint x="1460" y="1338" as="sourcePoint" />
            <mxPoint x="1470" y="1270" as="targetPoint" />
          </mxGeometry>
        </mxCell>
        <mxCell id="uvv6Vc5LGoxbDmVbcmZp-76" value="" style="endArrow=none;html=1;rounded=0;entryX=0.742;entryY=1.003;entryDx=0;entryDy=0;entryPerimeter=0;" parent="1" source="uvv6Vc5LGoxbDmVbcmZp-73" target="uvv6Vc5LGoxbDmVbcmZp-33" edge="1">
          <mxGeometry width="50" height="50" relative="1" as="geometry">
            <mxPoint x="1520" y="1310" as="sourcePoint" />
            <mxPoint x="1517" y="1261" as="targetPoint" />
          </mxGeometry>
        </mxCell>
      </root>
    </mxGraphModel>
  </diagram>
</mxfile>
